<svg width="500" height="175" viewBox="0 0 500 175" fill="none" xmlns="http://www.w3.org/2000/svg">
<g clip-path="url(#clip0_601_3)">
<rect width="500" height="175" rx="15" fill="#CBAE62"/>
<path d="M60.4488 111.89C44.9688 111.89 28.4088 107.3 19.7688 100.64L27.8688 86.69C35.3388 92.63 49.2888 96.95 61.6188 96.95C70.7088 96.95 76.4688 94.79 76.4688 91.46C76.4688 88.67 72.3288 86.96 62.5188 85.88L50.6388 84.53C30.2988 82.37 21.5688 76.7 21.5688 65.27C21.5688 51.41 37.2288 43.58 60.1788 43.58C73.7688 43.58 86.5488 46.82 94.4688 51.95L87.8988 65.45C80.8788 60.77 70.2588 57.8 60.3588 57.89C51.1788 57.98 44.4287 60.14 44.3388 63.56C44.3388 65.99 47.9388 67.52 56.2188 68.33L68.1888 69.59C89.9688 71.84 99.3288 77.78 99.3288 89.48C99.4188 102.8 84.1188 111.89 60.4488 111.89ZM115.693 58.61C108.853 58.61 103.903 54.29 103.903 48.17C103.903 42.05 108.853 37.82 115.693 37.82C122.533 37.82 127.483 42.05 127.483 48.17C127.483 54.29 122.533 58.61 115.693 58.61ZM105.073 110V63.56H126.313V110H105.073ZM133.893 110V63.56H151.623L154.413 75.35H154.503C158.733 67.16 167.463 62.03 178.083 62.03C188.883 62.03 195.993 67.25 198.603 75.53H198.693C203.013 67.07 212.463 62.03 222.723 62.03C236.493 62.03 244.593 70.31 244.593 82.73V110H223.263V85.88C223.263 79.4 219.393 75.53 212.733 75.53C204.633 75.53 199.863 80.48 199.863 88.67V110H178.623V85.88C178.623 79.4 174.663 75.53 168.093 75.53C159.993 75.53 155.223 80.48 155.223 88.67V110H133.893ZM250.963 128.9V63.56H269.323L272.113 75.53H272.203C275.803 67.34 285.793 62.03 297.493 62.03C314.053 62.03 324.853 71.84 324.853 86.78C324.853 101.72 314.053 111.44 297.493 111.44C285.883 111.44 275.983 106.22 272.383 98.12H272.293V128.9H250.963ZM287.503 97.31C297.223 97.31 303.523 93.17 303.523 86.78C303.523 80.39 297.223 76.16 287.503 76.16C277.873 76.16 271.483 80.39 271.483 86.78C271.483 93.17 277.873 97.31 287.503 97.31ZM369.114 111.44C345.174 111.44 328.974 101.81 328.974 86.69C328.974 72.2 344.004 62.03 365.514 62.03C386.664 62.03 400.614 71.84 400.614 86.78C400.614 88.13 400.434 90.11 399.984 91.64H351.384C353.814 97.04 361.914 99.2 370.644 99.2C379.824 99.2 389.094 97.22 393.864 94.52L399.714 104.6C393.414 108.65 381.534 111.44 369.114 111.44ZM351.024 82.55H379.194C378.924 77.24 372.804 73.64 365.334 73.64C357.684 73.64 351.834 77.33 351.024 82.55ZM434.599 130.34C420.649 130.34 408.229 127.91 401.839 124.04L408.859 110.18C415.069 113.87 424.609 116.21 433.699 116.21C448.099 116.21 457.189 111.08 457.189 102.89V100.64H457.099C453.139 106.22 443.509 109.82 432.709 109.82C415.969 109.82 405.259 100.64 405.259 86.15C405.259 71.48 416.329 62.03 433.519 62.03C444.409 62.03 453.769 67.16 457.189 75.17H457.279L460.069 63.47H478.429V102.53C478.429 119.63 461.599 130.34 434.599 130.34ZM442.249 98.03C451.789 98.03 457.909 93.53 457.909 86.78C457.909 80.03 451.789 75.53 442.249 75.53C432.709 75.53 426.589 80.03 426.589 86.78C426.589 93.53 432.709 98.03 442.249 98.03Z" fill="black"/>
</g>
<defs>
<clipPath id="clip0_601_3">
<rect width="500" height="175" rx="15" fill="white"/>
</clipPath>
</defs>
</svg>
