<svg width="500" height="300" viewBox="0 0 500 300" fill="none" xmlns="http://www.w3.org/2000/svg">
<g clip-path="url(#clip0_601_11)">
<rect width="500" height="300" rx="15" fill="#CBAE62"/>
<rect width="500" height="300" rx="15" fill="#CBAE62"/>
<path d="M81.51 263.68C67.75 263.68 53.03 259.6 45.35 253.68L52.55 241.28C59.19 246.56 71.59 250.4 82.55 250.4C90.63 250.4 95.75 248.48 95.75 245.52C95.75 243.04 92.07 241.52 83.35 240.56L72.79 239.36C54.71 237.44 46.95 232.4 46.95 222.24C46.95 209.92 60.87 202.96 81.27 202.96C93.35 202.96 104.71 205.84 111.75 210.4L105.91 222.4C99.67 218.24 90.23 215.6 81.43 215.68C73.27 215.76 67.27 217.68 67.19 220.72C67.19 222.88 70.39 224.24 77.75 224.96L88.39 226.08C107.75 228.08 116.07 233.36 116.07 243.76C116.15 255.6 102.55 263.68 81.51 263.68ZM130.616 216.32C124.536 216.32 120.136 212.48 120.136 207.04C120.136 201.6 124.536 197.84 130.616 197.84C136.696 197.84 141.096 201.6 141.096 207.04C141.096 212.48 136.696 216.32 130.616 216.32ZM121.176 262V220.72H140.056V262H121.176ZM146.794 262V220.72H162.554L165.034 231.2H165.114C168.874 223.92 176.634 219.36 186.074 219.36C195.674 219.36 201.994 224 204.314 231.36H204.394C208.234 223.84 216.634 219.36 225.754 219.36C237.994 219.36 245.194 226.72 245.194 237.76V262H226.234V240.56C226.234 234.8 222.794 231.36 216.874 231.36C209.674 231.36 205.434 235.76 205.434 243.04V262H186.554V240.56C186.554 234.8 183.034 231.36 177.194 231.36C169.994 231.36 165.754 235.76 165.754 243.04V262H146.794ZM250.856 278.8V220.72H267.176L269.656 231.36H269.736C272.936 224.08 281.816 219.36 292.216 219.36C306.936 219.36 316.536 228.08 316.536 241.36C316.536 254.64 306.936 263.28 292.216 263.28C281.896 263.28 273.096 258.64 269.896 251.44H269.816V278.8H250.856ZM283.336 250.72C291.976 250.72 297.576 247.04 297.576 241.36C297.576 235.68 291.976 231.92 283.336 231.92C274.776 231.92 269.096 235.68 269.096 241.36C269.096 247.04 274.776 250.72 283.336 250.72ZM355.879 263.28C334.599 263.28 320.199 254.72 320.199 241.28C320.199 228.4 333.559 219.36 352.679 219.36C371.479 219.36 383.879 228.08 383.879 241.36C383.879 242.56 383.719 244.32 383.319 245.68H340.119C342.279 250.48 349.479 252.4 357.239 252.4C365.399 252.4 373.639 250.64 377.879 248.24L383.079 257.2C377.479 260.8 366.919 263.28 355.879 263.28ZM339.799 237.6H364.839C364.599 232.88 359.159 229.68 352.519 229.68C345.719 229.68 340.519 232.96 339.799 237.6ZM414.088 280.08C401.688 280.08 390.648 277.92 384.968 274.48L391.208 262.16C396.728 265.44 405.208 267.52 413.288 267.52C426.088 267.52 434.168 262.96 434.168 255.68V253.68H434.088C430.568 258.64 422.008 261.84 412.408 261.84C397.528 261.84 388.008 253.68 388.008 240.8C388.008 227.76 397.848 219.36 413.128 219.36C422.808 219.36 431.128 223.92 434.168 231.04H434.248L436.728 220.64H453.048V255.36C453.048 270.56 438.088 280.08 414.088 280.08ZM420.888 251.36C429.368 251.36 434.808 247.36 434.808 241.36C434.808 235.36 429.368 231.36 420.888 231.36C412.408 231.36 406.968 235.36 406.968 241.36C406.968 247.36 412.408 251.36 420.888 251.36Z" fill="black"/>
<path d="M212.377 154.769C212.984 155.225 213.674 155.557 214.409 155.745C215.143 155.934 215.908 155.976 216.659 155.869C217.41 155.761 218.132 155.507 218.784 155.121C219.437 154.734 220.007 154.223 220.462 153.615C223.955 148.958 228.484 145.178 233.691 142.574C238.898 139.971 244.64 138.615 250.462 138.615C256.283 138.615 262.025 139.971 267.232 142.574C272.439 145.178 276.969 148.958 280.462 153.615C280.916 154.221 281.486 154.732 282.138 155.118C282.789 155.504 283.511 155.758 284.261 155.865C285.011 155.972 285.775 155.931 286.509 155.743C287.243 155.555 287.932 155.224 288.538 154.769C289.145 154.315 289.655 153.745 290.041 153.093C290.427 152.441 290.681 151.72 290.788 150.97C290.895 150.22 290.854 149.456 290.666 148.722C290.478 147.988 290.147 147.298 289.692 146.692C284.584 139.843 277.771 134.451 269.933 131.05C274.229 127.128 277.238 121.999 278.567 116.336C279.895 110.673 279.481 104.74 277.378 99.317C275.274 93.8936 271.58 89.2329 266.781 85.9464C261.981 82.66 256.3 80.9014 250.483 80.9014C244.666 80.9014 238.985 82.66 234.186 85.9464C229.386 89.2329 225.692 93.8936 223.589 99.317C221.485 104.74 221.071 110.673 222.4 116.336C223.728 121.999 226.738 127.128 231.034 131.05C223.179 134.444 216.351 139.837 211.231 146.692C210.312 147.915 209.917 149.454 210.132 150.968C210.347 152.483 211.154 153.85 212.377 154.769ZM250.462 92.4615C253.885 92.4615 257.231 93.4766 260.077 95.3784C262.923 97.2802 265.142 99.9833 266.452 103.146C267.762 106.308 268.104 109.788 267.437 113.146C266.769 116.503 265.12 119.587 262.7 122.008C260.279 124.428 257.195 126.077 253.838 126.744C250.481 127.412 247.001 127.069 243.838 125.759C240.676 124.449 237.973 122.231 236.071 119.385C234.169 116.539 233.154 113.192 233.154 109.769C233.154 105.179 234.977 100.777 238.223 97.5308C241.469 94.285 245.871 92.4615 250.462 92.4615ZM302.385 29H198.538C195.478 29 192.543 30.2157 190.38 32.3795C188.216 34.5434 187 37.4783 187 40.5385V167.462C187 170.522 188.216 173.457 190.38 175.62C192.543 177.784 195.478 179 198.538 179H302.385C305.445 179 308.38 177.784 310.544 175.62C312.707 173.457 313.923 170.522 313.923 167.462V40.5385C313.923 37.4783 312.707 34.5434 310.544 32.3795C308.38 30.2157 305.445 29 302.385 29ZM302.385 167.462H198.538V40.5385H302.385V167.462ZM221.615 57.8462C221.615 56.3161 222.223 54.8486 223.305 53.7667C224.387 52.6848 225.855 52.0769 227.385 52.0769H273.538C275.069 52.0769 276.536 52.6848 277.618 53.7667C278.7 54.8486 279.308 56.3161 279.308 57.8462C279.308 59.3762 278.7 60.8437 277.618 61.9256C276.536 63.0076 275.069 63.6154 273.538 63.6154H227.385C225.855 63.6154 224.387 63.0076 223.305 61.9256C222.223 60.8437 221.615 59.3762 221.615 57.8462Z" fill="black"/>
</g>
<defs>
<clipPath id="clip0_601_11">
<rect width="500" height="300" rx="15" fill="white"/>
</clipPath>
</defs>
</svg>
