<svg width="500" height="200" viewBox="0 0 500 200" fill="none" xmlns="http://www.w3.org/2000/svg">
<path d="M187.208 124.344C176.2 124.344 164.424 121.08 158.28 116.344L164.04 106.424C169.352 110.648 179.272 113.72 188.04 113.72C194.504 113.72 198.6 112.184 198.6 109.816C198.6 107.832 195.656 106.616 188.68 105.848L180.232 104.888C165.768 103.352 159.56 99.32 159.56 91.192C159.56 81.336 170.696 75.768 187.016 75.768C196.68 75.768 205.768 78.072 211.4 81.72L206.728 91.32C201.736 87.992 194.184 85.88 187.144 85.944C180.616 86.008 175.816 87.544 175.752 89.976C175.752 91.704 178.312 92.792 184.2 93.368L192.712 94.264C208.2 95.864 214.856 100.088 214.856 108.408C214.92 117.88 204.04 124.344 187.208 124.344ZM226.493 86.456C221.629 86.456 218.109 83.384 218.109 79.032C218.109 74.68 221.629 71.672 226.493 71.672C231.357 71.672 234.877 74.68 234.877 79.032C234.877 83.384 231.357 86.456 226.493 86.456ZM218.941 123V89.976H234.045V123H218.941ZM239.435 123V89.976H252.043L254.027 98.36H254.091C257.099 92.536 263.307 88.888 270.859 88.888C278.539 88.888 283.595 92.6 285.451 98.488H285.515C288.587 92.472 295.307 88.888 302.603 88.888C312.395 88.888 318.155 94.776 318.155 103.608V123H302.987V105.848C302.987 101.24 300.235 98.488 295.499 98.488C289.739 98.488 286.347 102.008 286.347 107.832V123H271.243V105.848C271.243 101.24 268.427 98.488 263.755 98.488C257.995 98.488 254.603 102.008 254.603 107.832V123H239.435ZM322.685 136.44V89.976H335.741L337.725 98.488H337.789C340.349 92.664 347.453 88.888 355.773 88.888C367.549 88.888 375.229 95.864 375.229 106.488C375.229 117.112 367.549 124.024 355.773 124.024C347.517 124.024 340.477 120.312 337.917 114.552H337.853V136.44H322.685ZM348.669 113.976C355.581 113.976 360.061 111.032 360.061 106.488C360.061 101.944 355.581 98.936 348.669 98.936C341.821 98.936 337.277 101.944 337.277 106.488C337.277 111.032 341.821 113.976 348.669 113.976ZM406.704 124.024C389.68 124.024 378.16 117.176 378.16 106.424C378.16 96.12 388.848 88.888 404.144 88.888C419.184 88.888 429.104 95.864 429.104 106.488C429.104 107.448 428.976 108.856 428.656 109.944H394.096C395.824 113.784 401.584 115.32 407.792 115.32C414.319 115.32 420.912 113.912 424.304 111.992L428.464 119.16C423.984 122.04 415.536 124.024 406.704 124.024ZM393.84 103.48H413.872C413.68 99.704 409.328 97.144 404.016 97.144C398.576 97.144 394.416 99.768 393.84 103.48ZM453.271 137.464C443.351 137.464 434.519 135.736 429.974 132.984L434.967 123.128C439.383 125.752 446.167 127.416 452.631 127.416C462.871 127.416 469.335 123.768 469.335 117.944V116.344H469.271C466.455 120.312 459.607 122.872 451.927 122.872C440.023 122.872 432.407 116.344 432.407 106.04C432.407 95.608 440.279 88.888 452.503 88.888C460.247 88.888 466.903 92.536 469.335 98.232H469.399L471.383 89.912H484.439V117.688C484.439 129.848 472.471 137.464 453.271 137.464ZM458.711 114.488C465.495 114.488 469.847 111.288 469.847 106.488C469.847 101.688 465.495 98.488 458.711 98.488C451.927 98.488 447.575 101.688 447.575 106.488C447.575 111.288 451.927 114.488 458.711 114.488Z" fill="#CBAE62"/>
<path d="M39.3774 150.769C39.9837 151.225 40.674 151.557 41.4086 151.745C42.1432 151.934 42.9079 151.976 43.6587 151.869C44.4096 151.761 45.132 151.507 45.7845 151.121C46.437 150.734 47.0069 150.223 47.4615 149.615C50.9546 144.958 55.484 141.178 60.691 138.574C65.8981 135.971 71.6398 134.615 77.4615 134.615C83.2832 134.615 89.025 135.971 94.2321 138.574C99.4391 141.178 103.969 144.958 107.462 149.615C107.916 150.221 108.486 150.732 109.138 151.118C109.789 151.504 110.511 151.758 111.261 151.865C112.011 151.972 112.775 151.931 113.509 151.743C114.243 151.555 114.932 151.224 115.538 150.769C116.145 150.315 116.655 149.745 117.041 149.093C117.427 148.441 117.681 147.72 117.788 146.97C117.895 146.22 117.854 145.456 117.666 144.722C117.478 143.988 117.147 143.298 116.692 142.692C111.584 135.843 104.771 130.451 96.9327 127.05C101.229 123.128 104.238 117.999 105.567 112.336C106.895 106.673 106.481 100.74 104.378 95.317C102.274 89.8936 98.5803 85.2329 93.7807 81.9464C88.9812 78.66 83.3001 76.9014 77.4832 76.9014C71.6662 76.9014 65.9852 78.66 61.1856 81.9464C56.3861 85.2329 52.6922 89.8936 50.5888 95.317C48.4855 100.74 48.0709 106.673 49.3995 112.336C50.7281 117.999 53.7378 123.128 58.0337 127.05C50.1791 130.444 43.3513 135.837 38.2308 142.692C37.3119 143.915 36.9166 145.454 37.1316 146.968C37.3466 148.483 38.1544 149.85 39.3774 150.769ZM77.4615 88.4615C80.8847 88.4615 84.2309 89.4766 87.0772 91.3784C89.9234 93.2802 92.1418 95.9833 93.4518 99.1459C94.7617 102.308 95.1045 105.788 94.4367 109.146C93.7688 112.503 92.1205 115.587 89.6999 118.008C87.2794 120.428 84.1955 122.077 80.8381 122.744C77.4807 123.412 74.0007 123.069 70.8382 121.759C67.6756 120.449 64.9725 118.231 63.0707 115.385C61.1689 112.539 60.1538 109.192 60.1538 105.769C60.1538 101.179 61.9773 96.7767 65.2232 93.5308C68.469 90.285 72.8713 88.4615 77.4615 88.4615ZM129.385 25H25.5385C22.4783 25 19.5434 26.2157 17.3795 28.3795C15.2157 30.5434 14 33.4783 14 36.5385V163.462C14 166.522 15.2157 169.457 17.3795 171.62C19.5434 173.784 22.4783 175 25.5385 175H129.385C132.445 175 135.38 173.784 137.544 171.62C139.707 169.457 140.923 166.522 140.923 163.462V36.5385C140.923 33.4783 139.707 30.5434 137.544 28.3795C135.38 26.2157 132.445 25 129.385 25ZM129.385 163.462H25.5385V36.5385H129.385V163.462ZM48.6154 53.8462C48.6154 52.3161 49.2232 50.8486 50.3052 49.7667C51.3871 48.6848 52.8545 48.0769 54.3846 48.0769H100.538C102.069 48.0769 103.536 48.6848 104.618 49.7667C105.7 50.8486 106.308 52.3161 106.308 53.8462C106.308 55.3762 105.7 56.8437 104.618 57.9256C103.536 59.0076 102.069 59.6154 100.538 59.6154H54.3846C52.8545 59.6154 51.3871 59.0076 50.3052 57.9256C49.2232 56.8437 48.6154 55.3762 48.6154 53.8462Z" fill="#CBAE62"/>
</svg>
