<svg width="500" height="500" viewBox="0 0 500 500" fill="none" xmlns="http://www.w3.org/2000/svg">
<path d="M148.673 385.385C150.29 386.6 152.131 387.484 154.09 387.987C156.049 388.49 158.088 388.602 160.09 388.316C162.092 388.031 164.019 387.353 165.759 386.322C167.499 385.291 169.019 383.927 170.231 382.308C179.546 369.888 191.624 359.808 205.51 352.865C219.395 345.922 234.706 342.308 250.231 342.308C265.756 342.308 281.067 345.922 294.952 352.865C308.838 359.808 320.916 369.888 330.231 382.308C331.443 383.924 332.962 385.286 334.7 386.315C336.439 387.344 338.363 388.021 340.363 388.307C342.363 388.593 344.4 388.482 346.357 387.98C348.314 387.479 350.153 386.597 351.77 385.385C353.386 384.172 354.748 382.654 355.777 380.915C356.806 379.177 357.483 377.253 357.769 375.253C358.055 373.253 357.943 371.216 357.442 369.259C356.941 367.302 356.059 365.462 354.846 363.846C341.224 345.582 323.058 331.202 302.154 322.135C313.61 311.676 321.636 297.998 325.179 282.896C328.721 267.794 327.616 251.974 322.007 237.512C316.398 223.05 306.548 210.621 293.749 201.857C280.95 193.093 265.801 188.404 250.289 188.404C234.777 188.404 219.627 193.093 206.828 201.857C194.03 210.621 184.179 223.05 178.57 237.512C172.961 251.974 171.856 267.794 175.399 282.896C178.942 297.998 186.968 311.676 198.423 322.135C177.478 331.184 159.27 345.566 145.615 363.846C143.165 367.108 142.111 371.209 142.684 375.249C143.258 379.288 145.412 382.934 148.673 385.385ZM250.231 219.231C259.359 219.231 268.283 221.938 275.873 227.009C283.463 232.081 289.378 239.289 292.872 247.722C296.365 256.156 297.279 265.436 295.498 274.389C293.717 283.342 289.321 291.566 282.867 298.02C276.412 304.475 268.188 308.871 259.235 310.652C250.282 312.432 241.002 311.518 232.569 308.025C224.135 304.532 216.927 298.616 211.855 291.026C206.784 283.436 204.077 274.513 204.077 265.385C204.077 253.144 208.94 241.404 217.595 232.749C226.251 224.093 237.99 219.231 250.231 219.231ZM388.693 50H111.769C103.609 50 95.7825 53.2417 90.0121 59.0121C84.2418 64.7824 81 72.6087 81 80.7692V419.231C81 427.391 84.2418 435.218 90.0121 440.988C95.7825 446.758 103.609 450 111.769 450H388.693C396.853 450 404.679 446.758 410.45 440.988C416.22 435.218 419.462 427.391 419.462 419.231V80.7692C419.462 72.6087 416.22 64.7824 410.45 59.0121C404.679 53.2417 396.853 50 388.693 50ZM388.693 419.231H111.769V80.7692H388.693V419.231ZM173.308 126.923C173.308 122.843 174.929 118.93 177.814 116.045C180.699 113.159 184.612 111.538 188.692 111.538H311.77C315.85 111.538 319.763 113.159 322.648 116.045C325.533 118.93 327.154 122.843 327.154 126.923C327.154 131.003 325.533 134.916 322.648 137.802C319.763 140.687 315.85 142.308 311.77 142.308H188.692C184.612 142.308 180.699 140.687 177.814 137.802C174.929 134.916 173.308 131.003 173.308 126.923Z" fill="#CBAE62"/>
</svg>
