<svg width="500" height="200" viewBox="0 0 500 200" fill="none" xmlns="http://www.w3.org/2000/svg">
<rect width="500" height="200" rx="15" fill="#CBAE62"/>
<rect width="500" height="200" rx="15" fill="#CBAE62"/>
<path d="M191.945 124.26C181.625 124.26 170.585 121.2 164.825 116.76L170.225 107.46C175.205 111.42 184.505 114.3 192.725 114.3C198.785 114.3 202.625 112.86 202.625 110.64C202.625 108.78 199.865 107.64 193.325 106.92L185.405 106.02C171.845 104.58 166.025 100.8 166.025 93.18C166.025 83.94 176.465 78.72 191.765 78.72C200.825 78.72 209.345 80.88 214.625 84.3L210.245 93.3C205.565 90.18 198.485 88.2 191.885 88.26C185.765 88.32 181.265 89.76 181.205 92.04C181.205 93.66 183.605 94.68 189.125 95.22L197.105 96.06C211.625 97.56 217.865 101.52 217.865 109.32C217.925 118.2 207.725 124.26 191.945 124.26ZM228.775 88.74C224.215 88.74 220.915 85.86 220.915 81.78C220.915 77.7 224.215 74.88 228.775 74.88C233.335 74.88 236.635 77.7 236.635 81.78C236.635 85.86 233.335 88.74 228.775 88.74ZM221.695 123V92.04H235.855V123H221.695ZM240.908 123V92.04H252.728L254.588 99.9H254.648C257.468 94.44 263.288 91.02 270.368 91.02C277.568 91.02 282.308 94.5 284.048 100.02H284.108C286.988 94.38 293.288 91.02 300.128 91.02C309.308 91.02 314.708 96.54 314.708 104.82V123H300.488V106.92C300.488 102.6 297.908 100.02 293.468 100.02C288.068 100.02 284.888 103.32 284.888 108.78V123H270.728V106.92C270.728 102.6 268.088 100.02 263.708 100.02C258.308 100.02 255.128 103.32 255.128 108.78V123H240.908ZM318.955 135.6V92.04H331.195L333.055 100.02H333.115C335.515 94.56 342.175 91.02 349.975 91.02C361.015 91.02 368.215 97.56 368.215 107.52C368.215 117.48 361.015 123.96 349.975 123.96C342.235 123.96 335.635 120.48 333.235 115.08H333.175V135.6H318.955ZM343.315 114.54C349.795 114.54 353.995 111.78 353.995 107.52C353.995 103.26 349.795 100.44 343.315 100.44C336.895 100.44 332.635 103.26 332.635 107.52C332.635 111.78 336.895 114.54 343.315 114.54ZM397.722 123.96C381.762 123.96 370.962 117.54 370.962 107.46C370.962 97.8 380.982 91.02 395.322 91.02C409.422 91.02 418.722 97.56 418.722 107.52C418.722 108.42 418.602 109.74 418.302 110.76H385.902C387.522 114.36 392.922 115.8 398.742 115.8C404.862 115.8 411.042 114.48 414.222 112.68L418.122 119.4C413.922 122.1 406.002 123.96 397.722 123.96ZM385.662 104.7H404.442C404.262 101.16 400.182 98.76 395.202 98.76C390.102 98.76 386.202 101.22 385.662 104.7ZM441.379 136.56C432.079 136.56 423.799 134.94 419.539 132.36L424.219 123.12C428.359 125.58 434.719 127.14 440.779 127.14C450.379 127.14 456.439 123.72 456.439 118.26V116.76H456.379C453.739 120.48 447.319 122.88 440.119 122.88C428.959 122.88 421.819 116.76 421.819 107.1C421.819 97.32 429.199 91.02 440.659 91.02C447.919 91.02 454.159 94.44 456.439 99.78H456.499L458.359 91.98H470.599V118.02C470.599 129.42 459.379 136.56 441.379 136.56ZM446.479 115.02C452.839 115.02 456.919 112.02 456.919 107.52C456.919 103.02 452.839 100.02 446.479 100.02C440.119 100.02 436.039 103.02 436.039 107.52C436.039 112.02 440.119 115.02 446.479 115.02Z" fill="black"/>
<path d="M49.8397 146.192C50.3854 146.602 51.0066 146.901 51.6677 147.071C52.3289 147.241 53.0171 147.278 53.6929 147.182C54.3686 147.085 55.0188 146.857 55.6061 146.509C56.1933 146.161 56.7062 145.7 57.1154 145.154C60.2591 140.962 64.3356 137.56 69.0219 135.217C73.7083 132.874 78.8759 131.654 84.1154 131.654C89.3549 131.654 94.5225 132.874 99.2089 135.217C103.895 137.56 107.972 140.962 111.115 145.154C111.525 145.699 112.037 146.159 112.624 146.506C113.211 146.854 113.86 147.082 114.535 147.179C115.21 147.275 115.897 147.238 116.558 147.068C117.218 146.899 117.839 146.601 118.385 146.192C118.93 145.783 119.39 145.271 119.737 144.684C120.084 144.097 120.313 143.448 120.409 142.773C120.506 142.098 120.468 141.41 120.299 140.75C120.13 140.089 119.832 139.469 119.423 138.923C114.825 132.759 108.694 127.906 101.639 124.845C105.506 121.316 108.214 116.699 109.41 111.602C110.606 106.506 110.233 101.166 108.34 96.2853C106.447 91.4043 103.122 87.2096 98.8027 84.2518C94.483 81.294 89.3701 79.7112 84.1349 79.7112C78.8996 79.7112 73.7867 81.294 69.4671 84.2518C65.1475 87.2096 61.823 91.4043 59.93 96.2853C58.0369 101.166 57.6638 106.506 58.8596 111.602C60.0553 116.699 62.764 121.316 66.6303 124.845C59.5612 127.9 53.4161 132.754 48.8077 138.923C47.9808 140.024 47.6249 141.408 47.8184 142.771C48.012 144.135 48.739 145.365 49.8397 146.192ZM84.1154 90.1154C87.1962 90.1154 90.2079 91.029 92.7695 92.7406C95.3311 94.4522 97.3276 96.885 98.5066 99.7313C99.6856 102.578 99.9941 105.71 99.393 108.731C98.792 111.753 97.3084 114.528 95.1299 116.707C92.9515 118.885 90.1759 120.369 87.1543 120.97C84.1327 121.571 81.0007 121.262 78.1544 120.084C75.3081 118.905 72.8753 116.908 71.1637 114.346C69.452 111.785 68.5385 108.773 68.5385 105.692C68.5385 101.561 70.1796 97.599 73.1008 94.6778C76.0221 91.7565 79.9841 90.1154 84.1154 90.1154ZM130.846 33H37.3846C34.6304 33 31.9891 34.0941 30.0416 36.0416C28.0941 37.9891 27 40.6304 27 43.3846V157.615C27 160.37 28.0941 163.011 30.0416 164.958C31.9891 166.906 34.6304 168 37.3846 168H130.846C133.6 168 136.242 166.906 138.189 164.958C140.137 163.011 141.231 160.37 141.231 157.615V43.3846C141.231 40.6304 140.137 37.9891 138.189 36.0416C136.242 34.0941 133.6 33 130.846 33ZM130.846 157.615H37.3846V43.3846H130.846V157.615ZM58.1539 58.9615C58.1539 57.5845 58.7009 56.2638 59.6746 55.29C60.6484 54.3163 61.9691 53.7692 63.3462 53.7692H104.885C106.262 53.7692 107.582 54.3163 108.556 55.29C109.53 56.2638 110.077 57.5845 110.077 58.9615C110.077 60.3386 109.53 61.6593 108.556 62.6331C107.582 63.6068 106.262 64.1538 104.885 64.1538H63.3462C61.9691 64.1538 60.6484 63.6068 59.6746 62.6331C58.7009 61.6593 58.1539 60.3386 58.1539 58.9615Z" fill="black"/>
</svg>
