<svg width="3400" height="700" viewBox="0 0 3400 700" fill="none" xmlns="http://www.w3.org/2000/svg">
<path d="M190.673 485.385C192.29 486.6 194.131 487.484 196.09 487.987C198.049 488.49 200.088 488.602 202.09 488.316C204.092 488.031 206.019 487.353 207.759 486.322C209.499 485.291 211.019 483.927 212.231 482.308C221.546 469.888 233.624 459.808 247.51 452.865C261.395 445.922 276.706 442.308 292.231 442.308C307.756 442.308 323.067 445.922 336.952 452.865C350.838 459.808 362.916 469.888 372.231 482.308C373.443 483.924 374.962 485.286 376.7 486.315C378.439 487.344 380.363 488.021 382.363 488.307C384.363 488.593 386.4 488.482 388.357 487.98C390.314 487.479 392.153 486.597 393.77 485.385C395.386 484.172 396.748 482.654 397.777 480.915C398.806 479.177 399.483 477.253 399.769 475.253C400.055 473.253 399.943 471.216 399.442 469.259C398.941 467.302 398.059 465.462 396.846 463.846C383.224 445.582 365.058 431.202 344.154 422.135C355.61 411.676 363.636 397.998 367.179 382.896C370.721 367.794 369.616 351.974 364.007 337.512C358.398 323.05 348.548 310.621 335.749 301.857C322.95 293.093 307.801 288.404 292.289 288.404C276.777 288.404 261.627 293.093 248.828 301.857C236.03 310.621 226.179 323.05 220.57 337.512C214.961 351.974 213.856 367.794 217.399 382.896C220.942 397.998 228.968 411.676 240.423 422.135C219.478 431.184 201.27 445.566 187.615 463.846C185.165 467.108 184.111 471.209 184.684 475.249C185.258 479.288 187.412 482.934 190.673 485.385ZM292.231 319.231C301.359 319.231 310.283 321.938 317.873 327.009C325.463 332.081 331.378 339.289 334.872 347.722C338.365 356.156 339.279 365.436 337.498 374.389C335.717 383.342 331.321 391.566 324.867 398.02C318.412 404.475 310.188 408.871 301.235 410.652C292.282 412.432 283.002 411.518 274.569 408.025C266.135 404.532 258.927 398.616 253.855 391.026C248.784 383.436 246.077 374.513 246.077 365.385C246.077 353.144 250.94 341.404 259.595 332.749C268.251 324.093 279.99 319.231 292.231 319.231ZM430.693 150H153.769C145.609 150 137.782 153.242 132.012 159.012C126.242 164.782 123 172.609 123 180.769V519.231C123 527.391 126.242 535.218 132.012 540.988C137.782 546.758 145.609 550 153.769 550H430.693C438.853 550 446.679 546.758 452.45 540.988C458.22 535.218 461.462 527.391 461.462 519.231V180.769C461.462 172.609 458.22 164.782 452.45 159.012C446.679 153.242 438.853 150 430.693 150ZM430.693 519.231H153.769V180.769H430.693V519.231ZM215.308 226.923C215.308 222.843 216.929 218.93 219.814 216.045C222.699 213.159 226.612 211.538 230.692 211.538H353.77C357.85 211.538 361.763 213.159 364.648 216.045C367.533 218.93 369.154 222.843 369.154 226.923C369.154 231.003 367.533 234.916 364.648 237.802C361.763 240.687 357.85 242.308 353.77 242.308H230.692C226.612 242.308 222.699 240.687 219.814 237.802C216.929 234.916 215.308 231.003 215.308 226.923Z" fill="#CBAE62"/>
<path d="M838.8 561.025C748.5 561.025 651.9 534.25 601.5 495.4L648.75 414.025C692.325 448.675 773.7 473.875 845.625 473.875C898.65 473.875 932.25 461.275 932.25 441.85C932.25 425.575 908.1 415.6 850.875 409.3L781.575 401.425C662.925 388.825 612 355.75 612 289.075C612 208.225 703.35 162.55 837.225 162.55C916.5 162.55 991.05 181.45 1037.25 211.375L998.925 290.125C957.975 262.825 896.025 245.5 838.275 246.025C784.725 246.55 745.35 259.15 744.825 279.1C744.825 293.275 765.825 302.2 814.125 306.925L883.95 314.275C1011 327.4 1065.6 362.05 1065.6 430.3C1066.13 508 976.875 561.025 838.8 561.025ZM1161.06 250.225C1121.16 250.225 1092.28 225.025 1092.28 189.325C1092.28 153.625 1121.16 128.95 1161.06 128.95C1200.96 128.95 1229.83 153.625 1229.83 189.325C1229.83 225.025 1200.96 250.225 1161.06 250.225ZM1099.11 550V279.1H1223.01V550H1099.11ZM1267.22 550V279.1H1370.65L1386.92 347.875H1387.45C1412.12 300.1 1463.05 270.175 1525 270.175C1588 270.175 1629.47 300.625 1644.7 348.925H1645.22C1670.42 299.575 1725.55 270.175 1785.4 270.175C1865.72 270.175 1912.97 318.475 1912.97 390.925V550H1788.55V409.3C1788.55 371.5 1765.97 348.925 1727.12 348.925C1679.87 348.925 1652.05 377.8 1652.05 425.575V550H1528.15V409.3C1528.15 371.5 1505.05 348.925 1466.72 348.925C1419.47 348.925 1391.65 377.8 1391.65 425.575V550H1267.22ZM1950.13 660.25V279.1H2057.23L2073.51 348.925H2074.03C2095.03 301.15 2153.31 270.175 2221.56 270.175C2318.16 270.175 2381.16 327.4 2381.16 414.55C2381.16 501.7 2318.16 558.4 2221.56 558.4C2153.83 558.4 2096.08 527.95 2075.08 480.7H2074.56V660.25H1950.13ZM2163.28 475.975C2219.98 475.975 2256.73 451.825 2256.73 414.55C2256.73 377.275 2219.98 352.6 2163.28 352.6C2107.11 352.6 2069.83 377.275 2069.83 414.55C2069.83 451.825 2107.11 475.975 2163.28 475.975ZM2639.35 558.4C2499.7 558.4 2405.2 502.225 2405.2 414.025C2405.2 329.5 2492.87 270.175 2618.35 270.175C2741.72 270.175 2823.1 327.4 2823.1 414.55C2823.1 422.425 2822.05 433.975 2819.42 442.9H2535.92C2550.1 474.4 2597.35 487 2648.27 487C2701.82 487 2755.9 475.45 2783.72 459.7L2817.85 518.5C2781.1 542.125 2711.8 558.4 2639.35 558.4ZM2533.82 389.875H2698.15C2696.57 358.9 2660.87 337.9 2617.3 337.9C2572.67 337.9 2538.55 359.425 2533.82 389.875ZM3021.34 668.65C2939.97 668.65 2867.52 654.475 2830.24 631.9L2871.19 551.05C2907.42 572.575 2963.07 586.225 3016.09 586.225C3100.09 586.225 3153.12 556.3 3153.12 508.525V495.4H3152.59C3129.49 527.95 3073.32 548.95 3010.32 548.95C2912.67 548.95 2850.19 495.4 2850.19 410.875C2850.19 325.3 2914.77 270.175 3015.04 270.175C3078.57 270.175 3133.17 300.1 3153.12 346.825H3153.64L3169.92 278.575H3277.02V506.425C3277.02 606.175 3178.84 668.65 3021.34 668.65ZM3065.97 480.175C3121.62 480.175 3157.32 453.925 3157.32 414.55C3157.32 375.175 3121.62 348.925 3065.97 348.925C3010.32 348.925 2974.62 375.175 2974.62 414.55C2974.62 453.925 3010.32 480.175 3065.97 480.175Z" fill="#CBAE62"/>
</svg>
